<?xml version="1.0" encoding="UTF-8"?>
<svg width="120px" height="106px" viewBox="0 0 120 106" version="1.1" xmlns="http://www.w3.org/2000/svg" xmlns:xlink="http://www.w3.org/1999/xlink">
    <!-- Generator: Sketch 52.4 (67378) - http://www.bohemiancoding.com/sketch -->
    <title>ngStarIcon</title>
    <desc>Created with Sketch.</desc>
    <g id="Page-1" stroke="none" stroke-width="1" fill="none" fill-rule="evenodd">
        <g id="ngStarIcon" transform="translate(1.000000, 0.000000)">
            <g id="Group-11-Copy" transform="translate(40.000000, 0.000000)" fill="#EA4335">
                <polygon id="Fill-1" points="39.5 0 51.7005119 26.6608345 79 30.9730821 59.25 51.7106326 63.9122582 81 39.5 67.1547779 15.0877418 81 19.75 51.7106326 0 30.9730821 27.2882537 26.6608345"></polygon>
            </g>
            <g id="Group-9" transform="translate(0.000000, 41.000000)" fill="#417505" stroke="#417505" stroke-width="0.5">
                <path d="M4.60532824,6.27588537 C8.60262368,2.09274208 13.1385946,2.66453526e-14 18.2201766,2.66453526e-14 C20.2731543,2.66453526e-14 22.2151601,0.297291101 24.0438824,0.891873303 C26.6632784,1.78374661 29.0445475,3.29361086 31.1900016,5.41912519 C33.0649621,7.31523379 34.42899,9.41968024 35.2867093,11.7277828 C36.0565759,13.5794148 36.4403532,15.7166335 36.4403532,18.1394389 L36.4403532,37.3088627 L31.8327131,37.3088627 L31.8327131,17.4886757 C31.495174,14.1974057 30.1403937,11.350902 27.7706841,8.95150528 C25.128169,6.29929412 21.9446665,4.9720181 18.2201766,4.9720181 C14.516494,4.9720181 11.3561106,6.29929412 8.73671456,8.95150528 C6.16355676,11.5568989 4.79721691,14.6538763 4.64000691,18.2424374 L4.64000691,37.3088627 L-1.10134124e-13,37.3088627 L-1.10134124e-13,0.411993967 L4.60532824,0.411993967 L4.60532824,6.27588537 Z" id="Fill-11"></path>
                <g id="Group-5" transform="translate(42.885714, 0.000000)">
                    <path d="M17.9173872,4.47737616 C14.2072936,4.47737616 11.0299436,5.81818182 8.38294824,8.49738594 C5.73356392,11.1765901 4.41006625,14.3853763 4.41006625,18.1237447 C4.41006625,21.8621131 5.73356392,25.0660849 8.38294824,27.7332531 C11.0299436,30.4028284 14.2072936,31.7340053 17.9173872,31.7340053 C21.6728716,31.7340053 24.8765004,30.4028284 27.5234958,27.7332531 C30.1728801,25.0660849 31.4963778,21.8621131 31.4963778,18.1237447 C31.4963778,14.3853763 30.1728801,11.1765901 27.5234958,8.49738594 C24.8765004,5.81818182 21.6728716,4.47737616 17.9173872,4.47737616 Z M11.8971451,39.9160492 L14.453359,35.8960394 C11.0227766,35.2846128 7.96726486,33.6140219 5.28443474,30.8890811 C1.76068192,27.3625456 0,23.1066311 0,18.1237447 C0,13.1167864 1.75590395,8.84402151 5.26771185,5.30785722 C8.77951975,1.76928574 12.9936892,0 17.9173872,0 C22.9103658,0 27.1436472,1.77410012 30.6196203,5.32470756 C30.9469112,5.63042088 31.2144776,5.92409824 31.4247082,6.20573965 L32.7912076,4.37145974 L36.1142857,7.54413811 L34.1911528,10.3316659 C35.3091978,12.6810847 35.8706092,15.2784444 35.8706092,18.1237447 C35.8706092,23.1066311 34.1194833,27.3625456 30.6196203,30.8890811 C27.5402187,33.991951 23.9256844,35.7299432 19.7712396,36.1078723 L18.7583099,37.6942115 L19.1071017,37.6942115 C20.5763275,37.6942115 22.0694431,37.9638169 23.5864486,38.505435 C26.9692513,39.7042163 29.4418507,41.93809 31.0066359,45.2046489 C31.8690594,47.0605935 32.3014657,48.9309813 32.3014657,50.8109979 C32.3014657,52.2697559 32.0315104,53.7501787 31.4963778,55.2546733 C30.3066633,58.6632565 28.0777403,61.1426637 24.8119978,62.6953022 C22.9677015,63.5642983 21.1019042,64 19.2122171,64 C17.7668812,64 16.3072114,63.7400233 14.8379856,63.2224772 C13.2278098,62.6351224 11.605689,61.624102 9.97401223,60.1918231 L13.8585018,57.9338775 C14.6970355,58.5212322 15.4901785,58.9569338 16.2379308,59.2385752 C17.1935248,59.5924324 18.1634527,59.7681574 19.1429365,59.7681574 C20.4019316,59.7681574 21.6609267,59.4624441 22.9223107,58.8510174 C25.1368998,57.7918532 26.6419603,56.1116335 27.4351033,53.8079513 C27.810174,52.7728589 27.9965148,51.7522097 27.9965148,50.7411893 C27.9965148,49.4701922 27.7050586,48.2256742 27.1221463,47.0028209 C26.0709929,44.7930191 24.4273713,43.2885245 22.1865034,42.4893369 C21.1831297,42.1378869 20.1917009,41.9597548 19.2122171,41.9597548 C17.9293322,41.9597548 16.6703371,42.2534321 15.4328429,42.843194 L11.8971451,39.9160492 Z" id="Fill-12"></path>
                </g>
            </g>
        </g>
    </g>
</svg>