<?xml version="1.0" encoding="UTF-8"?>
<svg width="325px" height="128px" viewBox="0 0 325 128" version="1.1" xmlns="http://www.w3.org/2000/svg" xmlns:xlink="http://www.w3.org/1999/xlink">
    <!-- Generator: Sketch 52.4 (67378) - http://www.bohemiancoding.com/sketch -->
    <title>ratingNgLogo</title>
    <desc>Created with Sketch.</desc>
    <defs>
        <polygon id="path-1" points="0 128 262.78421 128 262.78421 0.580136752 0 0.580136752"></polygon>
    </defs>
    <g id="Page-1" stroke="none" stroke-width="1" fill="none" fill-rule="evenodd">
        <g id="ratingNgLogo">
            <g id="Group-15">
                <path d="M6.61584844,61.1568855 L6.66566157,91.1290564 L0.000664175127,91.1290564 L0.000664175127,38.8584923 L6.61584844,38.8584923 L6.61584844,47.265159 C6.94129425,46.9070051 7.28002357,46.5521675 7.63867813,46.1940137 C12.5004401,41.3357231 18.3883526,38.9082359 25.2957739,38.9082359 L26.2687904,38.9082359 L26.2687904,45.076441 C25.9433446,45.0465949 25.6212197,45.0300137 25.2957739,45.0300137 C20.138454,45.0300137 15.7117268,46.8572615 12.0155922,50.5183897 C8.96702839,53.5626974 7.16711379,57.1077573 6.61584844,61.1568855" id="Fill-2" fill="#000000"></path>
                <path d="M76.2277114,69.5608991 L76.2277114,59.8940615 C75.384209,56.3655829 73.5842944,53.221788 70.8279676,50.4693094 C66.9026926,46.5196684 62.1372361,44.5431897 56.5249563,44.5431897 C50.979094,44.5431897 46.2302418,46.5130359 42.271758,50.4460957 C38.3165952,54.3824718 36.3373533,59.1313265 36.3373533,64.7026085 C36.3373533,70.2738906 38.3165952,75.0260615 42.271758,78.9624376 C46.2302418,82.8954974 50.979094,84.8620274 56.5249563,84.8620274 C62.1372361,84.8620274 66.9026926,82.9021299 70.8279676,78.9856513 C73.5842944,76.2331726 75.384209,73.0893778 76.2277114,69.5608991 Z M76.2277114,47.0701641 L76.2277114,39.0548137 L82.8428957,39.0548137 L82.8428957,91.1297197 L76.2277114,91.1297197 L76.2277114,82.3383692 L75.2546948,83.4061983 C70.0674871,88.5563179 63.8242409,91.1297197 56.5249563,91.1297197 C49.2289925,91.1297197 42.9957089,88.5496855 37.8251056,83.3829846 C32.6511813,78.2162838 30.0642192,71.9883863 30.0642192,64.7026085 C30.0642192,57.4168308 32.6511813,51.1922496 37.8251056,46.0255487 C42.9957089,40.8621641 49.2289925,38.2754974 56.5249563,38.2754974 C63.8242409,38.2754974 70.0674871,40.8522154 75.2546948,46.002335 L76.2277114,47.0701641 Z" id="Fill-4" fill="#000000"></path>
                <g id="Group-8" transform="translate(93.984518, 0.000000)" fill="#000000">
                    <path d="M13.4252196,82.725706 C14.8199873,83.8266974 16.3608736,84.3771932 18.0478785,84.3771932 C18.3367946,84.3771932 18.6456361,84.360612 18.9710819,84.3274496 C20.7211834,84.1351077 22.198973,83.4386974 23.3978091,82.241535 L28.6514344,86.3205094 C27.6120003,87.7763385 26.1043228,88.9602359 24.1284018,89.8655692 C22.7668427,90.4823897 21.2890531,90.8703897 19.7016745,91.0328855 C19.0839917,91.095894 18.4829132,91.1290564 17.9017599,91.1290564 C14.6904732,91.1290564 11.7880279,90.0943897 9.19442402,88.0217402 C6.11265143,85.5577744 4.53855638,81.9165436 4.47545975,77.0914154 L4.47545975,61.9328855 L0.291156447,61.9328855 L0.291156447,55.3766803 L4.47545975,55.3766803 L4.47545975,0.57914188 L11.1869494,0.57914188 L11.1869494,55.3766803 L19.9440985,55.3766803 L19.9440985,61.9328855 L11.1869494,61.9328855 L11.1869494,76.7498427 C11.1869494,79.4393128 11.9341464,81.4290564 13.4252196,82.725706" id="Fill-6"></path>
                </g>
                <mask id="mask-2" fill="white">
                    <use xlink:href="#path-1"></use>
                </mask>
                <g id="Clip-10"></g>
                <polygon id="Fill-9" fill="#000000" mask="url(#mask-2)" points="129.982393 91.1300513 136.597577 91.1300513 136.597577 55.3776752 129.982393 55.3776752"></polygon>
                <path d="M156.152554,47.1666667 C161.894348,41.240547 168.409906,38.2758291 175.70919,38.2758291 C178.658128,38.2758291 181.447663,38.6969915 184.074476,39.5393162 C187.837028,40.8028034 191.25753,42.9417778 194.339303,45.9529231 C197.032533,48.6390769 198.991849,51.6203761 200.223894,54.890188 C201.329746,57.5133333 201.881011,60.5410598 201.881011,63.9733675 L201.881011,91.1300513 L195.262506,91.1300513 L195.262506,63.051453 C194.777658,58.3888205 192.831625,54.3562735 189.427728,50.9571282 C185.631967,47.1998291 181.059121,45.3195214 175.70919,45.3195214 C170.389147,45.3195214 165.849511,47.1998291 162.086958,50.9571282 C158.390824,54.6481026 156.428186,59.0354872 156.202367,64.1192821 L156.202367,91.1300513 L149.537369,91.1300513 L149.537369,38.8594872 L156.152554,38.8594872 L156.152554,47.1666667 Z" id="Fill-11" fill="#000000" mask="url(#mask-2)"></path>
                <path d="M237.488104,46.0006769 C232.330784,46.0006769 227.914019,47.8478222 224.234489,51.5387966 C220.551638,55.2297709 218.711873,59.6503179 218.711873,64.8004376 C218.711873,69.9505573 220.551638,74.3644718 224.234489,78.038865 C227.914019,81.7165744 232.330784,83.5504547 237.488104,83.5504547 C242.70852,83.5504547 247.161815,81.7165744 250.841345,78.038865 C254.524196,74.3644718 256.363961,69.9505573 256.363961,64.8004376 C256.363961,59.6503179 254.524196,55.2297709 250.841345,51.5387966 C247.161815,47.8478222 242.70852,46.0006769 237.488104,46.0006769 Z M229.119497,94.8223521 L232.672834,89.2842325 C227.904057,88.4419077 223.656657,86.1404376 219.927314,82.3864547 C215.029022,77.5281641 212.581537,71.665053 212.581537,64.8004376 C212.581537,57.9026598 215.02238,52.016335 219.904067,47.1447795 C224.785755,42.2699077 230.643779,39.8324718 237.488104,39.8324718 C244.428734,39.8324718 250.313326,42.2765402 255.1452,47.1679932 C255.60016,47.5891556 255.972098,47.9937368 256.264335,48.3817368 L258.163876,45.8547624 L262.783214,50.2255658 L260.109909,54.0657709 C261.664078,57.3024205 262.444484,60.8806427 262.444484,64.8004376 C262.444484,71.665053 260.010282,77.5281641 255.1452,82.3864547 C250.864591,86.6610872 245.840106,89.055412 240.065103,89.5760615 L238.657052,91.7614632 L239.1419,91.7614632 C241.184238,91.7614632 243.259786,92.1328821 245.368542,92.8790359 C250.070902,94.5305231 253.508008,97.6079932 255.683181,102.10813 C256.882018,104.66495 257.483096,107.241668 257.483096,109.831651 C257.483096,111.841292 257.107837,113.880779 256.363961,115.953429 C254.710165,120.649224 251.611788,124.06495 247.072151,126.203925 C244.508435,127.401087 241.914831,128.001326 239.288018,128.001326 C237.278889,128.001326 235.249834,127.643173 233.207495,126.930181 C230.969225,126.121019 228.71435,124.728198 226.446192,122.755036 L231.845936,119.644403 C233.011564,120.453566 234.114094,121.053805 235.153528,121.441805 C236.481879,121.929292 237.830154,122.171378 239.191713,122.171378 C240.941815,122.171378 242.691916,121.750215 244.445338,120.907891 C247.52379,119.448745 249.615942,117.13401 250.718472,113.960369 C251.23985,112.534386 251.498878,111.128301 251.498878,109.73548 C251.498878,107.984506 251.093731,106.27001 250.283438,104.585361 C248.822252,101.541053 246.53749,99.4684034 243.422509,98.367412 C242.027741,97.883241 240.649577,97.6378393 239.288018,97.6378393 C237.504708,97.6378393 235.754607,98.0424205 234.034393,98.8548991 L229.119497,94.8223521 Z" id="Fill-12" fill="#EA4335" mask="url(#mask-2)"></path>
                <path d="M229.120826,94.8213573 L234.032401,98.8539043 C235.061872,98.3664171 236.107948,98.074588 237.157345,97.8822462 L237.157345,83.5229299 C232.146143,83.4400239 227.832326,81.6326735 224.232497,78.0378701 C220.552966,74.3634769 218.709881,69.9495624 218.709881,64.7994427 C218.709881,59.6526393 220.552966,55.2320923 224.232497,51.5378017 C227.832326,47.9264171 232.146143,46.1124342 237.157345,46.0295282 L237.157345,39.8480581 C230.459138,39.9243316 224.704061,42.3518188 219.905396,47.1437846 C215.023709,52.0186564 212.582865,57.901665 212.582865,64.7994427 C212.582865,71.6673744 215.03035,77.5271692 219.925321,82.3854598 C223.654664,86.142759 227.905385,88.4409128 232.670842,89.2832376 L229.120826,94.8213573 Z" id="Fill-13" fill="#000000" mask="url(#mask-2)"></path>
                <path d="M237.157345,121.989316 C236.486528,121.866615 235.819032,121.684222 235.151536,121.442137 C234.115423,121.054137 233.012892,120.453897 231.843944,119.644735 L226.4442,122.752051 C228.715679,124.72853 230.970553,126.12135 233.208824,126.930513 C234.530532,127.394786 235.845599,127.650137 237.157345,127.812632 L237.157345,121.989316 Z" id="Fill-14" fill="#000000" mask="url(#mask-2)"></path>
            </g>
            <path d="M279.780358,35.7007153 C282.19363,33.2340319 284.932115,32 288,32 C289.239437,32 290.411877,32.1753043 291.515924,32.5259129 C293.097323,33.0518258 294.534957,33.9421508 295.830225,35.1955076 C296.962188,36.3135902 297.785687,37.5545238 298.303515,38.9155477 C298.768304,40.0074037 299,41.2676622 299,42.6963233 L299,54 L296.218246,54 L296.218246,42.3125863 C296.014465,40.3718158 295.196549,38.6933116 293.765893,37.278454 C292.170537,35.7145188 290.248573,34.931861 288,34.931861 C285.763989,34.931861 283.855983,35.7145188 282.274584,37.278454 C280.721101,38.8147823 279.896206,40.6409838 279.801294,42.7570586 L279.801294,54 L277,54 L277,32.2429414 L279.780358,32.2429414 L279.780358,35.7007153 Z" id="Fill-11" stroke="#417505" stroke-width="0.5" fill="#417505"></path>
            <g id="Group-5" transform="translate(303.000000, 32.000000)" fill="#417505" stroke="#417505" stroke-width="0.5">
                <path d="M10.4187339,2.58848309 C8.26136138,2.58848309 6.41377257,3.36363636 4.87457829,4.91255125 C3.33399484,6.46146613 2.5643977,8.31654568 2.5643977,10.4777899 C2.5643977,12.6390341 3.33399484,14.4913303 4.87457829,16.0332869 C6.41377257,17.5766352 8.26136138,18.3462218 10.4187339,18.3462218 C12.6025005,18.3462218 14.4653701,17.5766352 16.0045644,16.0332869 C17.5451478,14.4913303 18.314745,12.6390341 18.314745,10.4777899 C18.314745,8.31654568 17.5451478,6.46146613 16.0045644,4.91255125 C14.4653701,3.36363636 12.6025005,2.58848309 10.4187339,2.58848309 Z M6.91803929,23.0764659 L8.40444533,20.7523978 C6.40960508,20.3989168 4.63286366,19.4331064 3.07283191,17.85775 C1.02381425,15.8189717 0,13.3585211 0,10.4777899 C0,7.58314214 1.02103592,5.11294994 3.06310776,3.06860496 C5.1051796,1.02286832 7.55566581,0 10.4187339,0 C13.3220877,0 15.7836872,1.02565163 17.8049216,3.07834656 C17.9952372,3.25508707 18.1508236,3.4248693 18.2730701,3.58769323 L19.0676722,2.52725016 L21,4.36145485 L19.8817226,5.97299432 C20.5318516,7.33125212 20.8583052,8.83285064 20.8583052,10.4777899 C20.8583052,13.3585211 19.8400476,15.8189717 17.8049216,17.85775 C16.0142885,19.6515966 13.9124826,20.6563734 11.4967255,20.8748637 L10.9077198,21.791966 L11.1105378,21.791966 C11.964874,21.791966 12.8331018,21.9478316 13.7152213,22.2609546 C15.6822782,22.9540001 17.1200635,24.2454583 18.0299663,26.1339376 C18.5314547,27.2069056 18.7828934,28.2882236 18.7828934,29.3751081 C18.7828934,30.2184526 18.6259178,31.074322 18.314745,31.944108 C17.6229411,33.9146952 16.3268506,35.3481025 14.4278627,36.2457216 C13.3554277,36.74811 12.2704902,37 11.171661,37 C10.3312165,37 9.48243699,36.849701 8.62810081,36.5504946 C7.69180393,36.2109302 6.74856122,35.626434 5.79976186,34.7983977 L8.05854336,33.4930229 C8.54614011,33.8325874 9.00734273,34.0844774 9.44215122,34.2473013 C9.99781703,34.451875 10.5618178,34.553466 11.1313753,34.553466 C11.863465,34.553466 12.5955547,34.3767255 13.3290335,34.0232444 C14.616789,33.4109151 15.4919627,32.4395381 15.9531653,31.1077218 C16.1712641,30.5093091 16.279619,29.9192462 16.279619,29.3347501 C16.279619,28.5999549 16.1101409,27.8804679 15.7711848,27.1735058 C15.1599524,25.8959642 14.2042072,25.0261782 12.9011709,24.5641479 C12.3177218,24.3609659 11.7412185,24.2579832 11.171661,24.2579832 C10.4256797,24.2579832 9.69359,24.4277654 8.97400278,24.7687216 L6.91803929,23.0764659 Z" id="Fill-12"></path>
            </g>
            <g id="Group-11" transform="translate(121.000000, 28.000000)" fill="#EA4335">
                <polygon id="Fill-1" points="11.5 0 15.0520478 7.5703604 23 8.79482578 17.25 14.683266 18.6073663 23 11.5 19.0686406 4.39263367 23 5.75 14.683266 0 8.79482578 7.94468146 7.5703604"></polygon>
            </g>
        </g>
    </g>
</svg>