<?xml version="1.0" encoding="UTF-8"?>
<svg width="149px" height="149px" viewBox="0 0 149 149" version="1.1" xmlns="http://www.w3.org/2000/svg" xmlns:xlink="http://www.w3.org/1999/xlink">
    <!-- Generator: Sketch 52.3 (67297) - http://www.bohemiancoding.com/sketch -->
    <title>starG</title>
    <desc>Created with Sketch.</desc>
    <g id="Page-1" stroke="none" stroke-width="1" fill="none" fill-rule="evenodd">
        <g id="starG">
            <polygon id="Fill-1" fill="#000000" points="74.5 -2.84217094e-14 97.5110922 49.0427696 149 56.9751757 111.75 95.1220278 120.543373 149 74.5 123.531629"></polygon>
            <polygon id="Fill-1" fill="#EA4335" points="74.5 -2.84217094e-14 74.5 123.531629 28.4566268 149 37.25 95.1220278 -1.42108547e-14 56.9751757 51.467719 49.0427696"></polygon>
            <path d="M76.3490772,53.8271712 C72.3425283,53.8271712 68.9112919,55.2727273 66.0527883,58.1612442 C63.1917047,61.0497612 61.7624529,64.5092338 61.7624529,68.5396622 C61.7624529,72.5700906 63.1917047,76.0243728 66.0527883,78.8999135 C68.9112919,81.7780494 72.3425283,83.2132245 76.3490772,83.2132245 C80.4046438,83.2132245 83.8642588,81.7780494 86.7227625,78.8999135 C89.583846,76.0243728 91.0130978,72.5700906 91.0130978,68.5396622 C91.0130978,64.5092338 89.583846,61.0497612 86.7227625,58.1612442 C83.8642588,55.2727273 80.4046438,53.8271712 76.3490772,53.8271712 Z M69.8477873,92.0344905 L72.6082556,87.7004175 C68.9035523,87.0412232 65.6038897,85.2401174 62.7066878,82.3022906 C58.9013693,78.5002445 57,73.9118366 57,68.5396622 C57,63.1415353 58.8962096,58.5349607 62.6886287,54.7225336 C66.4810478,50.9075112 71.0319508,49 76.3490772,49 C81.74102,49 86.312562,50.9127017 90.066283,54.7407003 C90.4197261,55.0702975 90.7086724,55.3869184 90.9357015,55.6905631 L92.4113911,53.71298 L96,57.1335239 L93.923199,60.1388272 C95.1305815,62.6717945 95.7368526,65.4720728 95.7368526,68.5396622 C95.7368526,73.9118366 93.8458027,78.5002445 90.066283,82.3022906 C86.7408216,85.6475721 82.8374678,87.521345 78.3510617,87.9287998 L77.2571939,89.6390717 L77.6338559,89.6390717 C79.2204803,89.6390717 80.8329034,89.9297401 82.4711252,90.5136721 C86.124231,91.8061082 88.7944037,94.2145033 90.4842231,97.7362621 C91.4155586,99.7372024 91.8825164,101.753714 91.8825164,103.780607 C91.8825164,105.353331 91.5909903,106.949411 91.0130978,108.571445 C89.7283191,112.246323 87.3212939,114.919434 83.7946021,116.593373 C81.8029371,117.530259 79.7880532,118 77.7473705,118 C76.1865449,118 74.6102401,117.719713 73.0236158,117.161733 C71.2847787,116.528491 69.5330423,115.438485 67.7709863,113.894309 L71.9658662,111.459962 C72.8714031,112.093203 73.7279222,112.562944 74.5354237,112.866589 C75.5673745,113.248091 76.6148045,113.437545 77.6725541,113.437545 C79.0321492,113.437545 80.3917444,113.107947 81.7539194,112.448753 C84.1454654,111.306842 85.7707879,109.495355 86.627307,107.011697 C87.0323477,105.895739 87.2335781,104.795351 87.2335781,103.705345 C87.2335781,102.335051 86.9188331,100.993305 86.2893431,99.6749163 C85.1541973,97.2924738 83.3792419,95.6704404 80.9593173,94.8088163 C79.875769,94.4299094 78.8051201,94.2378606 77.7473705,94.2378606 C76.3619766,94.2378606 75.0023814,94.5544815 73.6660052,95.1903186 L69.8477873,92.0344905 Z" id="Fill-12" fill="#FFFFFF"></path>
            <path d="M69.7864865,91.8562918 L73.5839189,95 C74.3798649,94.6199629 75.1886486,94.3924577 76,94.2425111 L76,83.0482212 C72.1255405,82.9835891 68.7902703,81.574608 66.007027,78.7721576 C63.1621622,75.9076603 61.7371622,72.4666442 61.7371622,68.4516945 C61.7371622,64.4393301 63.1621622,60.9931434 66.007027,58.1131344 C68.7902703,55.2977575 72.1255405,53.8836059 76,53.8189738 L76,49 C70.8212162,49.0594616 66.3716216,50.9518912 62.6614865,54.68763 C58.8871622,58.4880009 57,63.0742989 57,68.4516945 C57,73.8058225 58.8922973,78.3740235 62.6768919,82.161468 C65.5602703,85.0905974 68.8467568,86.8822009 72.5312162,87.5388636 L69.7864865,91.8562918 Z" id="Fill-13" fill="#000000"></path>
            <path d="M76,113.72229 C75.4990701,113.632156 75.00062,113.498173 74.5021699,113.320341 C73.7284563,113.035323 72.9051457,112.594397 72.0322381,112 L68,114.282582 C69.6962182,115.73447 71.3800372,116.757613 73.0514569,117.35201 C74.0384377,117.693057 75.0204588,117.880633 76,118 L76,113.72229 Z" id="Fill-14" fill="#000000"></path>
        </g>
    </g>
</svg>